# Made in Blockbench 5.0.7
mtllib Apple.mtl

o sphere
v 0 0.21875 0
v 0 1.0915062500000001 0
v 0.07665625 1.2165062500000001 0.286084375
v 0.14951875 0.9375 0.5580125
v 0.133974375 0.6875 0.5
v 0.116025625 0.5 0.4330125
v 0.0669875 0.2857375 0.25
v 0.209428125 1.2477562500000001 0.209428125
v 0.40849375 0.9375 0.40849375
v 0.366025625 0.6875 0.366025625
v 0.3169875 0.5 0.3169875
v 0.1830125 0.2857375 0.1830125
v 0.286084375 1.2477562500000001 0.07665625
v 0.5580125 0.9375 0.14951875
v 0.5 0.6875 0.133974375
v 0.4330125 0.5 0.116025625
v 0.25 0.2857375 0.0669875
v 0.286084375 1.2477562500000001 -0.07665625
v 0.5580125 0.9375 -0.14951875
v 0.5 0.6875 -0.133974375
v 0.4330125 0.5 -0.116025625
v 0.25 0.2857375 -0.0669875
v 0.209428125 1.2477562500000001 -0.209428125
v 0.40849375 0.9375 -0.40849375
v 0.366025625 0.6875 -0.366025625
v 0.3169875 0.5 -0.3169875
v 0.1830125 0.2857375 -0.1830125
v 0.07665625 1.2165062500000001 -0.286084375
v 0.14951875 0.9375 -0.5580125
v 0.133974375 0.6875 -0.5
v 0.116025625 0.5 -0.4330125
v 0.0669875 0.2857375 -0.25
v -0.07665625 1.2165062500000001 -0.286084375
v -0.14951875 0.9375 -0.5580125
v -0.133974375 0.6875 -0.5
v -0.116025625 0.5 -0.4330125
v -0.0669875 0.2857375 -0.25
v -0.209428125 1.2477562500000001 -0.209428125
v -0.40849375 0.9375 -0.40849375
v -0.366025625 0.6875 -0.366025625
v -0.3169875 0.5 -0.3169875
v -0.1830125 0.2857375 -0.1830125
v -0.286084375 1.2477562500000001 -0.07665625
v -0.5580125 0.9375 -0.14951875
v -0.5 0.6875 -0.133974375
v -0.4330125 0.5 -0.116025625
v -0.25 0.2857375 -0.0669875
v -0.286084375 1.2477562500000001 0.07665625
v -0.5580125 0.9375 0.14951875
v -0.5 0.6875 0.133974375
v -0.4330125 0.5 0.116025625
v -0.25 0.2857375 0.0669875
v -0.209428125 1.2477562500000001 0.209428125
v -0.40849375 0.9375 0.40849375
v -0.366025625 0.6875 0.366025625
v -0.3169875 0.5 0.3169875
v -0.1830125 0.2857375 0.1830125
v -0.07665625 1.1696312500000001 0.286084375
v -0.14951875 0.9375 0.5580125
v -0.133974375 0.6875 0.5
v -0.116025625 0.5 0.4330125
v -0.0669875 0.2857375 0.25
v 0.12349625 1.125918125 0.460895
v 0.33893625 1.15579625 0.33893625
v 0.443365625 1.168615 0.118799375
v 0.446724375 1.16642125 -0.119699375
v 0.31965375 1.172996875 -0.31965375
v 0.12084125 1.132388125 -0.450986875
v -0.119096875 1.0116399999999999 -0.444475
v -0.33968375 1.155129375 -0.33968375
v -0.439913125 1.170869375 -0.117874375
v -0.45474 1.1611875 0.121846875
v -0.330246875 1.1635475 0.330246875
v -0.125235 1.074805625 0.46738375
vt 0.046875 0.984375
vt 0.015625 0.984375
vt 0.015625 0.953125
vt 0.109375 0.984375
vt 0.078125 0.984375
vt 0.078125 0.953125
vt 0.109375 0.953125
vt 0.171875 0.984375
vt 0.140625 0.984375
vt 0.140625 0.953125
vt 0.171875 0.953125
vt 0.234375 0.984375
vt 0.203125 0.984375
vt 0.203125 0.953125
vt 0.234375 0.953125
vt 0.296875 0.984375
vt 0.265625 0.984375
vt 0.265625 0.953125
vt 0.359375 0.984375
vt 0.328125 0.984375
vt 0.328125 0.953125
vt 0.421875 0.984375
vt 0.390625 0.984375
vt 0.390625 0.953125
vt 0.421875 0.953125
vt 0.484375 0.984375
vt 0.453125 0.984375
vt 0.453125 0.953125
vt 0.484375 0.953125
vt 0.546875 0.984375
vt 0.515625 0.984375
vt 0.515625 0.953125
vt 0.546875 0.953125
vt 0.609375 0.984375
vt 0.578125 0.984375
vt 0.578125 0.953125
vt 0.671875 0.984375
vt 0.640625 0.984375
vt 0.640625 0.953125
vt 0.734375 0.984375
vt 0.703125 0.984375
vt 0.703125 0.953125
vt 0.734375 0.953125
vt 0.796875 0.984375
vt 0.765625 0.984375
vt 0.765625 0.953125
vt 0.796875 0.953125
vt 0.859375 0.984375
vt 0.828125 0.984375
vt 0.828125 0.953125
vt 0.859375 0.953125
vt 0.921875 0.984375
vt 0.890625 0.984375
vt 0.890625 0.953125
vt 0.984375 0.984375
vt 0.953125 0.984375
vt 0.953125 0.953125
vt 0.046875 0.921875
vt 0.015625 0.921875
vt 0.015625 0.890625
vt 0.046875 0.890625
vt 0.109375 0.921875
vt 0.078125 0.921875
vt 0.078125 0.890625
vt 0.109375 0.890625
vt 0.171875 0.921875
vt 0.140625 0.921875
vt 0.140625 0.890625
vt 0.171875 0.890625
vt 0.234375 0.921875
vt 0.203125 0.921875
vt 0.203125 0.890625
vt 0.296875 0.921875
vt 0.265625 0.921875
vt 0.265625 0.890625
vt 0.359375 0.921875
vt 0.328125 0.921875
vt 0.328125 0.890625
vt 0.359375 0.890625
vt 0.421875 0.921875
vt 0.390625 0.921875
vt 0.390625 0.890625
vt 0.421875 0.890625
vt 0.484375 0.921875
vt 0.453125 0.921875
vt 0.453125 0.890625
vt 0.484375 0.890625
vt 0.546875 0.921875
vt 0.515625 0.921875
vt 0.515625 0.890625
vt 0.609375 0.921875
vt 0.578125 0.921875
vt 0.578125 0.890625
vt 0.671875 0.921875
vt 0.640625 0.921875
vt 0.640625 0.890625
vt 0.671875 0.890625
vt 0.734375 0.921875
vt 0.703125 0.921875
vt 0.703125 0.890625
vt 0.734375 0.890625
vt 0.796875 0.921875
vt 0.765625 0.921875
vt 0.765625 0.890625
vt 0.796875 0.890625
vt 0.859375 0.921875
vt 0.828125 0.921875
vt 0.828125 0.890625
vt 0.921875 0.921875
vt 0.890625 0.921875
vt 0.890625 0.890625
vt 0.984375 0.921875
vt 0.953125 0.921875
vt 0.953125 0.890625
vt 0.984375 0.890625
vt 0.046875 0.859375
vt 0.015625 0.859375
vt 0.015625 0.828125
vt 0.046875 0.828125
vt 0.109375 0.859375
vt 0.078125 0.859375
vt 0.078125 0.828125
vt 0.109375 0.828125
vt 0.171875 0.859375
vt 0.140625 0.859375
vt 0.140625 0.828125
vt 0.234375 0.859375
vt 0.203125 0.859375
vt 0.203125 0.828125
vt 0.296875 0.859375
vt 0.265625 0.859375
vt 0.265625 0.828125
vt 0.296875 0.828125
vt 0.359375 0.859375
vt 0.328125 0.859375
vt 0.328125 0.828125
vt 0.359375 0.828125
vt 0.421875 0.859375
vt 0.390625 0.859375
vt 0.390625 0.828125
vt 0.421875 0.828125
vt 0.484375 0.859375
vt 0.453125 0.859375
vt 0.453125 0.828125
vt 0.546875 0.859375
vt 0.515625 0.859375
vt 0.515625 0.828125
vt 0.609375 0.859375
vt 0.578125 0.859375
vt 0.578125 0.828125
vt 0.609375 0.828125
vt 0.671875 0.859375
vt 0.640625 0.859375
vt 0.640625 0.828125
vt 0.671875 0.828125
vt 0.734375 0.859375
vt 0.703125 0.859375
vt 0.703125 0.828125
vt 0.734375 0.828125
vt 0.796875 0.859375
vt 0.765625 0.859375
vt 0.765625 0.828125
vt 0.859375 0.859375
vt 0.828125 0.859375
vt 0.828125 0.828125
vt 0.921875 0.859375
vt 0.890625 0.859375
vt 0.890625 0.828125
vt 0.921875 0.828125
vt 0.984375 0.859375
vt 0.953125 0.859375
vt 0.953125 0.828125
vt 0.984375 0.828125
vt 0.046875 0.796875
vt 0.015625 0.796875
vt 0.015625 0.765625
vt 0.046875 0.765625
vt 0.109375 0.796875
vt 0.078125 0.796875
vt 0.078125 0.765625
vt 0.171875 0.796875
vt 0.140625 0.796875
vt 0.140625 0.765625
vt 0.234375 0.796875
vt 0.203125 0.796875
vt 0.203125 0.765625
vt 0.234375 0.765625
vt 0.296875 0.796875
vt 0.265625 0.796875
vt 0.265625 0.765625
vt 0.296875 0.765625
vt 0.359375 0.796875
vt 0.328125 0.796875
vt 0.328125 0.765625
vt 0.359375 0.765625
vt 0.421875 0.796875
vt 0.390625 0.796875
vt 0.390625 0.765625
vt 0.484375 0.796875
vt 0.453125 0.796875
vt 0.453125 0.765625
vt 0.546875 0.796875
vt 0.515625 0.796875
vt 0.515625 0.765625
vt 0.546875 0.765625
vt 0.609375 0.796875
vt 0.578125 0.796875
vt 0.578125 0.765625
vt 0.609375 0.765625
vt 0.671875 0.796875
vt 0.640625 0.796875
vt 0.640625 0.765625
vt 0.671875 0.765625
vt 0.734375 0.796875
vt 0.703125 0.796875
vt 0.703125 0.765625
vt 0.796875 0.796875
vt 0.765625 0.796875
vt 0.765625 0.765625
vt 0.796875 0.765625
vt 0.859375 0.796875
vt 0.828125 0.796875
vt 0.828125 0.765625
vt 0.859375 0.765625
vt 0.921875 0.796875
vt 0.890625 0.796875
vt 0.890625 0.765625
vt 0.921875 0.765625
vt 0.984375 0.796875
vt 0.953125 0.796875
vt 0.953125 0.765625
vt 0.984375 0.765625
vt 0.046875 0.734375
vt 0.015625 0.734375
vt 0.015625 0.703125
vt 0.046875 0.703125
vt 0.109375 0.734375
vt 0.078125 0.734375
vt 0.078125 0.703125
vt 0.109375 0.703125
vt 0.171875 0.734375
vt 0.140625 0.734375
vt 0.140625 0.703125
vt 0.171875 0.703125
vt 0.234375 0.734375
vt 0.203125 0.734375
vt 0.203125 0.703125
vt 0.234375 0.703125
vt 0.296875 0.734375
vt 0.265625 0.734375
vt 0.265625 0.703125
vt 0.296875 0.703125
vt 0.359375 0.734375
vt 0.328125 0.734375
vt 0.328125 0.703125
vt 0.359375 0.703125
vt 0.421875 0.734375
vt 0.390625 0.734375
vt 0.390625 0.703125
vt 0.421875 0.703125
vt 0.484375 0.734375
vt 0.453125 0.734375
vt 0.453125 0.703125
vt 0.484375 0.703125
vt 0.546875 0.734375
vt 0.515625 0.734375
vt 0.515625 0.703125
vt 0.546875 0.703125
vt 0.609375 0.734375
vt 0.578125 0.734375
vt 0.578125 0.703125
vt 0.609375 0.703125
vt 0.671875 0.734375
vt 0.640625 0.734375
vt 0.640625 0.703125
vt 0.671875 0.703125
vt 0.734375 0.734375
vt 0.703125 0.734375
vt 0.703125 0.703125
vt 0.734375 0.703125
vt 0.796875 0.734375
vt 0.765625 0.734375
vt 0.765625 0.703125
vt 0.796875 0.703125
vt 0.859375 0.734375
vt 0.828125 0.734375
vt 0.828125 0.703125
vt 0.859375 0.703125
vt 0.921875 0.734375
vt 0.890625 0.734375
vt 0.890625 0.703125
vt 0.921875 0.703125
vt 0.984375 0.734375
vt 0.953125 0.734375
vt 0.953125 0.703125
vt 0.984375 0.703125
vt 0.046875 0.671875
vt 0.015625 0.671875
vt 0.015625 0.640625
vt 0.046875 0.640625
vt 0.109375 0.671875
vt 0.078125 0.671875
vt 0.078125 0.640625
vt 0.109375 0.640625
vt 0.171875 0.671875
vt 0.140625 0.671875
vt 0.140625 0.640625
vt 0.171875 0.640625
vt 0.234375 0.671875
vt 0.203125 0.671875
vt 0.203125 0.640625
vt 0.234375 0.640625
vn -0.3728031953552883 0.8827908372932727 -0.2858288213667918
vn 0.487057256450926 -0.2260439155631531 0.8436109157516725
vn 0.4708514697329951 -0.336438809265431 0.8155414281753793
vn 0.38019174610209533 -0.6494786962264595 0.6585071444895784
vn 0.12941055896651493 -0.9659256086491206 0.2241442075624541
vn -0.41511528091138433 0.8776323339324671 -0.23966808296081762
vn 0.8436109131736287 -0.22604392839170384 0.48705725496249697
vn 0.8155414003869603 -0.3364388990789508 0.4708514536893982
vn 0.6585056380110814 -0.6494807327877611 0.38019087633068155
vn 0.2241442075624541 -0.9659256086491206 0.12941055896651493
vn -0.4793343237124458 0.8776323866580655 0
vn 0.9741171209152131 -0.22604387790837527 0
vn 0.941704976311124 -0.3364397978700875 0
vn 0.7603796114190845 -0.649478903843814 0
vn 0.258819772900384 -0.9659256312759249 0
vn -0.41511528091138433 0.8776323339324671 0.23966808296081762
vn 0.8436109157516725 -0.2260439155631531 -0.487057256450926
vn 0.8155414281753793 -0.336438809265431 -0.4708514697329951
vn 0.6585071444895784 -0.6494786962264595 -0.3801917461020954
vn 0.2241442075624541 -0.9659256086491206 -0.12941055896651493
vn -0.3728031953552882 0.8827908372932727 0.2858288213667918
vn 0.48705725496249697 -0.22604392839170384 -0.8436109131736287
vn 0.4708514536893982 -0.3364388990789508 -0.8155414003869603
vn 0.38019087633068155 -0.6494807327877611 -0.6585056380110814
vn 0.12941055896651493 -0.9659256086491206 -0.2241442075624541
vn 0 0.9163476761903223 0.40038348659828166
vn 0 -0.22604387790837527 -0.9741171209152131
vn 0 -0.3364397978700875 -0.941704976311124
vn 0 -0.649478903843814 -0.7603796114190845
vn 0 -0.9659256312759249 -0.258819772900384
vn 0.3728031953552883 0.8827908372932727 0.2858288213667918
vn -0.487057256450926 -0.2260439155631531 -0.8436109157516725
vn -0.4708514697329951 -0.336438809265431 -0.8155414281753793
vn -0.38019174610209533 -0.6494786962264595 -0.6585071444895784
vn -0.12941055896651493 -0.9659256086491206 -0.2241442075624541
vn 0.41511528091138433 0.8776323339324671 0.23966808296081762
vn -0.8436109131736287 -0.22604392839170384 -0.48705725496249697
vn -0.8155414003869603 -0.3364388990789508 -0.4708514536893982
vn -0.6585056380110814 -0.6494807327877611 -0.38019087633068155
vn -0.2241442075624541 -0.9659256086491206 -0.12941055896651493
vn 0.4793343237124458 0.8776323866580655 0
vn -0.9741171209152131 -0.22604387790837527 0
vn -0.941704976311124 -0.3364397978700875 0
vn -0.7603796114190845 -0.649478903843814 0
vn -0.258819772900384 -0.9659256312759249 0
vn 0.41511528091138433 0.8776323339324671 -0.23966808296081762
vn -0.8436109157516725 -0.2260439155631531 0.487057256450926
vn -0.8155414281753793 -0.336438809265431 0.4708514697329951
vn -0.6585071444895784 -0.6494786962264595 0.3801917461020954
vn -0.2241442075624541 -0.9659256086491206 0.12941055896651493
vn 0.5407954753402308 0.8369833738587362 -0.08366053870003981
vn -0.48705725496249697 -0.22604392839170384 0.8436109131736287
vn -0.4708514536893982 -0.3364388990789508 0.8155414003869603
vn -0.38019087633068155 -0.6494807327877611 0.6585056380110814
vn -0.12941055896651493 -0.9659256086491206 0.2241442075624541
vn -0.2768665331238143 0.905538141003622 -0.32147410163760376
vn 0 -0.22604387790837527 0.9741171209152131
vn 0 -0.3364397978700875 0.941704976311124
vn 0 -0.649478903843814 0.7603796114190845
vn 0 -0.9659256312759249 0.258819772900384
vn 0.049309319234292597 0.8921235654910095 0.44909256833336664
vn 0.38673229042208435 0.4641481980496062 0.7968717499021986
vn 0.3994265438496703 0.8872865367429561 0.23061014241138267
vn 0.8216081433767345 0.3932844920959576 0.41265889910901027
vn 0.44948680969707816 0.8932869683972462 0
vn 0.8953512132885267 0.4452793811894817 0.008513374787701972
vn 0.39119883429825797 0.8921607482085819 -0.22585984902055384
vn 0.766639579724718 0.434297542870909 -0.47291584775285217
vn 0.08538745767451507 0.862170486030766 -0.4993706389940799
vn 0.4241219461483676 0.4553134601294465 -0.7828219643190092
vn 0 0.8907964271248622 -0.45440260278917866
vn -0.24434030242907792 0.43889608196721347 -0.8646780012482658
vn -0.27592992573725533 0.6230327643044569 -0.731910411652806
vn 0.2364525490171094 0.7833332955499598 -0.5748731513526709
vn -0.39988904197343433 0.8870087304024952 -0.2308771671242579
vn -0.8287626979977238 0.3891773723507206 -0.402111132969136
vn -0.447085664220261 0.8944911452042038 0
vn -0.8896435603114751 0.45518323642663594 -0.03664091800837442
vn -0.3954665628659884 0.8896484833484536 0.22832383522260216
vn -0.7818934501330806 0.41818225909428247 0.46234860313165227
vn 0.0910357711739135 0.7719802671164634 0.6290937573601924
vn -0.3741004878272401 0.4163443890244731 0.8286773646813693
vn -0.2693989187835584 0.8811140637014251 0.38866724753419957
vn -0.09358557517285228 0.5599303224445988 0.8232373741070399
usemtl m_55405b63-6e7f-154a-48a9-db139e3f9f20
f 3/1/1 8/2/1 2/3/1
f 4/4/2 5/5/2 10/6/2 9/7/2
f 5/8/3 6/9/3 11/10/3 10/11/3
f 6/12/4 7/13/4 12/14/4 11/15/4
f 12/16/5 7/17/5 1/18/5
f 8/19/6 13/20/6 2/21/6
f 9/22/7 10/23/7 15/24/7 14/25/7
f 10/26/8 11/27/8 16/28/8 15/29/8
f 11/30/9 12/31/9 17/32/9 16/33/9
f 17/34/10 12/35/10 1/36/10
f 13/37/11 18/38/11 2/39/11
f 14/40/12 15/41/12 20/42/12 19/43/12
f 15/44/13 16/45/13 21/46/13 20/47/13
f 16/48/14 17/49/14 22/50/14 21/51/14
f 22/52/15 17/53/15 1/54/15
f 18/55/16 23/56/16 2/57/16
f 19/58/17 20/59/17 25/60/17 24/61/17
f 20/62/18 21/63/18 26/64/18 25/65/18
f 21/66/19 22/67/19 27/68/19 26/69/19
f 27/70/20 22/71/20 1/72/20
f 23/73/21 28/74/21 2/75/21
f 24/76/22 25/77/22 30/78/22 29/79/22
f 25/80/23 26/81/23 31/82/23 30/83/23
f 26/84/24 27/85/24 32/86/24 31/87/24
f 32/88/25 27/89/25 1/90/25
f 28/91/26 33/92/26 2/93/26
f 29/94/27 30/95/27 35/96/27 34/97/27
f 30/98/28 31/99/28 36/100/28 35/101/28
f 31/102/29 32/103/29 37/104/29 36/105/29
f 37/106/30 32/107/30 1/108/30
f 33/109/31 38/110/31 2/111/31
f 34/112/32 35/113/32 40/114/32 39/115/32
f 35/116/33 36/117/33 41/118/33 40/119/33
f 36/120/34 37/121/34 42/122/34 41/123/34
f 42/124/35 37/125/35 1/126/35
f 38/127/36 43/128/36 2/129/36
f 39/130/37 40/131/37 45/132/37 44/133/37
f 40/134/38 41/135/38 46/136/38 45/137/38
f 41/138/39 42/139/39 47/140/39 46/141/39
f 47/142/40 42/143/40 1/144/40
f 43/145/41 48/146/41 2/147/41
f 44/148/42 45/149/42 50/150/42 49/151/42
f 45/152/43 46/153/43 51/154/43 50/155/43
f 46/156/44 47/157/44 52/158/44 51/159/44
f 52/160/45 47/161/45 1/162/45
f 48/163/46 53/164/46 2/165/46
f 49/166/47 50/167/47 55/168/47 54/169/47
f 50/170/48 51/171/48 56/172/48 55/173/48
f 51/174/49 52/175/49 57/176/49 56/177/49
f 57/178/50 52/179/50 1/180/50
f 53/181/51 58/182/51 2/183/51
f 54/184/52 55/185/52 60/186/52 59/187/52
f 55/188/53 56/189/53 61/190/53 60/191/53
f 56/192/54 57/193/54 62/194/54 61/195/54
f 62/196/55 57/197/55 1/198/55
f 58/199/56 3/200/56 2/201/56
f 59/202/57 60/203/57 5/204/57 4/205/57
f 60/206/58 61/207/58 6/208/58 5/209/58
f 61/210/59 62/211/59 7/212/59 6/213/59
f 7/214/60 62/215/60 1/216/60
f 8/217/61 3/218/61 63/219/61 64/220/61
f 64/221/62 63/222/62 4/223/62 9/224/62
f 13/225/63 8/226/63 64/227/63 65/228/63
f 65/229/64 64/230/64 9/231/64 14/232/64
f 18/233/65 13/234/65 65/235/65 66/236/65
f 66/237/66 65/238/66 14/239/66 19/240/66
f 23/241/67 18/242/67 66/243/67 67/244/67
f 67/245/68 66/246/68 19/247/68 24/248/68
f 28/249/69 23/250/69 67/251/69 68/252/69
f 68/253/70 67/254/70 24/255/70 29/256/70
f 33/257/71 28/258/71 68/259/71 69/260/71
f 69/261/72 68/262/72 29/263/72 34/264/72
f 38/265/73 33/266/73 69/267/73 70/268/73
f 70/269/74 69/270/74 34/271/74 39/272/74
f 43/273/75 38/274/75 70/275/75 71/276/75
f 71/277/76 70/278/76 39/279/76 44/280/76
f 48/281/77 43/282/77 71/283/77 72/284/77
f 72/285/78 71/286/78 44/287/78 49/288/78
f 53/289/79 48/290/79 72/291/79 73/292/79
f 73/293/80 72/294/80 49/295/80 54/296/80
f 58/297/81 53/298/81 73/299/81 74/300/81
f 74/301/82 73/302/82 54/303/82 59/304/82
f 3/305/83 58/306/83 74/307/83 63/308/83
f 63/309/84 74/310/84 59/311/84 4/312/84
o cylinder
v -0.0625 0.3125 0
v -0.0625 1.5625 0
v -0.04702790495397505 0.3125 -0.006408751606389112
v -0.023110190431156932 1.5625 0.05133371917556631
v -0.020229624264069532 0.3125 -0.017508962916428995
v -0.0027206613476405406 1.5625 0.024761412819501474
v -0.004757529218044579 0.3125 -0.023917714522818108
v 0.001651222388344531 1.5625 -0.008445619476793152
v -0.004757529218044579 0.3125 -0.023917714522818108
v -0.011166280824433689 1.5625 -0.03938980956884307
v -0.020229624264069532 0.3125 -0.017508962916428995
v -0.03773858718049852 1.5625 -0.05977933865235946
v -0.04702790495397505 0.3125 -0.006408751606389112
v -0.07094561947679315 1.5625 -0.06415122238834453
v -0.07797209504602495 0.3125 0.006408751606389112
v -0.10188980956884307 1.5625 -0.05133371917556631
v -0.10477037573593047 0.3125 0.017508962916428995
v -0.12227933865235946 1.5625 -0.024761412819501474
v -0.12024247078195542 0.3125 0.023917714522818108
v -0.12665122238834453 1.5625 0.008445619476793152
v -0.12024247078195542 0.3125 0.023917714522818108
v -0.11383371917556631 1.5625 0.03938980956884307
v -0.10477037573593047 0.3125 0.017508962916428995
v -0.08726141281950148 1.5625 0.05977933865235946
v -0.07797209504602495 0.3125 0.006408751606389112
v -0.05405438052320685 1.5625 0.06415122238834453
v -0.04702790495397505 1.10681125 -0.006408751606389112
v -0.020229624264069532 1.108049375 -0.017508962916428995
v -0.004757529218044579 1.10729875 -0.023917714522818108
v -0.10477037573593047 1.108325 0.017508962916428995
v -0.07797209504602495 1.108440625 0.006408751606389112
v -0.020229624264069532 1.105081875 -0.017508962916428995
v -0.004757529218044579 1.106541875 -0.023917714522818108
v -0.04702790495397505 1.102939375 -0.006408751606389112
v -0.07797209504602495 1.103531875 0.006408751606389112
v -0.10477037573593047 1.104821875 0.017508962916428995
v -0.12024247078195542 1.105169375 0.023917714522818108
v -0.12024247078195542 1.10679875 0.023917714522818108
vt 0.046875 0.984375
vt 0.015625 0.984375
vt 0.015625 0.953125
vt 0.109375 0.984375
vt 0.078125 0.984375
vt 0.078125 0.953125
vt 0.171875 0.984375
vt 0.140625 0.984375
vt 0.140625 0.953125
vt 0.234375 0.984375
vt 0.203125 0.984375
vt 0.203125 0.953125
vt 0.296875 0.984375
vt 0.265625 0.984375
vt 0.265625 0.953125
vt 0.359375 0.984375
vt 0.328125 0.984375
vt 0.328125 0.953125
vt 0.421875 0.984375
vt 0.390625 0.984375
vt 0.390625 0.953125
vt 0.484375 0.984375
vt 0.453125 0.984375
vt 0.453125 0.953125
vt 0.546875 0.984375
vt 0.515625 0.984375
vt 0.515625 0.953125
vt 0.609375 0.984375
vt 0.578125 0.984375
vt 0.578125 0.953125
vt 0.671875 0.984375
vt 0.640625 0.984375
vt 0.640625 0.953125
vt 0.734375 0.984375
vt 0.703125 0.984375
vt 0.703125 0.953125
vt 0.796875 0.984375
vt 0.765625 0.984375
vt 0.765625 0.953125
vt 0.859375 0.984375
vt 0.828125 0.984375
vt 0.828125 0.953125
vt 0.921875 0.984375
vt 0.890625 0.984375
vt 0.890625 0.953125
vt 0.984375 0.984375
vt 0.953125 0.984375
vt 0.953125 0.953125
vt 0.046875 0.921875
vt 0.015625 0.921875
vt 0.015625 0.890625
vt 0.109375 0.921875
vt 0.078125 0.921875
vt 0.078125 0.890625
vt 0.171875 0.921875
vt 0.140625 0.921875
vt 0.140625 0.890625
vt 0.234375 0.921875
vt 0.203125 0.921875
vt 0.203125 0.890625
vt 0.296875 0.921875
vt 0.265625 0.921875
vt 0.265625 0.890625
vt 0.359375 0.921875
vt 0.328125 0.921875
vt 0.328125 0.890625
vt 0.421875 0.921875
vt 0.390625 0.921875
vt 0.390625 0.890625
vt 0.484375 0.921875
vt 0.453125 0.921875
vt 0.453125 0.890625
vt 0.546875 0.921875
vt 0.515625 0.921875
vt 0.515625 0.890625
vt 0.546875 0.890625
vt 0.609375 0.921875
vt 0.578125 0.921875
vt 0.578125 0.890625
vt 0.609375 0.890625
vt 0.671875 0.921875
vt 0.640625 0.921875
vt 0.640625 0.890625
vt 0.671875 0.890625
vt 0.734375 0.921875
vt 0.703125 0.921875
vt 0.703125 0.890625
vt 0.734375 0.890625
vt 0.796875 0.921875
vt 0.765625 0.921875
vt 0.765625 0.890625
vt 0.859375 0.921875
vt 0.828125 0.921875
vt 0.828125 0.890625
vt 0.921875 0.921875
vt 0.890625 0.921875
vt 0.890625 0.890625
vt 0.921875 0.890625
vt 0.984375 0.921875
vt 0.953125 0.921875
vt 0.953125 0.890625
vt 0.984375 0.890625
vt 0.046875 0.859375
vt 0.015625 0.859375
vt 0.015625 0.828125
vt 0.046875 0.828125
vt 0.109375 0.859375
vt 0.078125 0.859375
vt 0.078125 0.828125
vt 0.109375 0.828125
vt 0.171875 0.859375
vt 0.140625 0.859375
vt 0.140625 0.828125
vt 0.171875 0.828125
vt 0.234375 0.859375
vt 0.203125 0.859375
vt 0.203125 0.828125
vt 0.234375 0.828125
vt 0.296875 0.859375
vt 0.265625 0.859375
vt 0.265625 0.828125
vt 0.296875 0.828125
vt 0.359375 0.859375
vt 0.328125 0.859375
vt 0.328125 0.828125
vt 0.359375 0.828125
vt 0.421875 0.859375
vt 0.390625 0.859375
vt 0.390625 0.828125
vt 0.421875 0.828125
vt 0.484375 0.859375
vt 0.453125 0.859375
vt 0.453125 0.828125
vt 0.484375 0.828125
vt 0.546875 0.859375
vt 0.515625 0.859375
vt 0.515625 0.828125
vt 0.546875 0.828125
vt 0.609375 0.859375
vt 0.578125 0.859375
vt 0.578125 0.828125
vt 0.609375 0.828125
vt 0.671875 0.859375
vt 0.640625 0.859375
vt 0.640625 0.828125
vt 0.671875 0.828125
vt 0.734375 0.859375
vt 0.703125 0.859375
vt 0.703125 0.828125
vt 0.734375 0.828125
vt 0.796875 0.859375
vt 0.765625 0.859375
vt 0.765625 0.828125
vt 0.796875 0.828125
vt 0.859375 0.859375
vt 0.828125 0.828125
vt 0.828125 0.859375
vt 0.859375 0.828125
vt 0.921875 0.859375
vt 0.890625 0.859375
vt 0.890625 0.828125
vt 0.921875 0.828125
vt 0.984375 0.859375
vt 0.953125 0.859375
vt 0.953125 0.828125
vt 0.046875 0.796875
vt 0.015625 0.796875
vt 0.015625 0.765625
vt 0.046875 0.765625
vt 0.109375 0.796875
vt 0.078125 0.796875
vt 0.078125 0.765625
vn 0 0 0
vn 0 1 0
vn 0 0 0
vn 0 1 0
vn 0 0 0
vn 0 1 0
vn 0 0 0
vn 0 1 0
vn 0 0 0
vn 0 1 0
vn 0 0 0
vn 0 1 0
vn 0 0 0
vn 0 1 0
vn 0 0 0
vn 0 1 0
vn 0 0 0
vn 0 1 0
vn 0 0 0
vn 0 1 0
vn 0 0 0
vn 0 1 0
vn 0 0 0
vn 0 1 0
vn 0.3826834323650897 0 0.9238795325112867
vn 0.790356593786106 -0.08685992960754768 0.6064584134855383
vn 0.3826834323650897 0 0.9238795325112867
vn 0.3809017517508809 -0.036765123687275886 0.9238842899375276
vn 0.9238795325112867 0 -0.3826834323650897
vn -0.6079884198933292 -0.050305958507103336 0.7923505485669173
vn 0.3826834323650897 0 0.9238795325112867
vn -0.12961133893143048 -0.11836773822039703 0.9844744686222135
vn 0.3826834323650897 0 0.9238795325112867
vn 0.37301872431511696 -0.135879926396349 0.9178200678307517
vn -0.3826834323650897 0 -0.9238795325112867
vn -0.37275287033859555 -0.09952433729359762 -0.922578020516752
vn -0.3826834323650897 0 -0.9238795325112867
vn -0.36997835657791134 -0.13475226063070497 -0.9192158853712344
vn -0.3826834323650897 0 -0.9238795325112867
vn -0.37918385711334057 -0.13492973629248944 -0.9154308104759687
vn -0.3826834323650897 0 -0.9238795325112867
vn -0.7903984990572218 -0.08625197503897274 -0.606490568343785
vn -0.3826834323650897 0 -0.9238795325112867
vn -0.9912783519376118 -0.01830639504686327 -0.13050710662734274
vn 0 0 0
vn -0.9238795325112867 0 0.3826834323650897
vn 0 0 0
vn 0.9238795325112867 0 -0.3826834323650897
vn 0.3826834323650897 0 0.9238795325112867
vn 0.3855153211998255 -0.03672468322381534 0.9219703003688925
usemtl m_c96b7e96-1486-deff-3ad8-e93356742726
f 79/313/85 77/314/85 75/315/85
f 78/316/86 80/317/86 76/318/86
f 81/319/87 79/320/87 75/321/87
f 80/322/88 82/323/88 76/324/88
f 83/325/89 81/326/89 75/327/89
f 82/328/90 84/329/90 76/330/90
f 85/331/91 83/332/91 75/333/91
f 84/334/92 86/335/92 76/336/92
f 87/337/93 85/338/93 75/339/93
f 86/340/94 88/341/94 76/342/94
f 89/343/95 87/344/95 75/345/95
f 88/346/96 90/347/96 76/348/96
f 91/349/97 89/350/97 75/351/97
f 90/352/98 92/353/98 76/354/98
f 93/355/99 91/356/99 75/357/99
f 92/358/100 94/359/100 76/360/100
f 95/361/101 93/362/101 75/363/101
f 94/364/102 96/365/102 76/366/102
f 97/367/103 95/368/103 75/369/103
f 96/370/104 98/371/104 76/372/104
f 99/373/105 97/374/105 75/375/105
f 98/376/106 100/377/106 76/378/106
f 77/379/107 99/380/107 75/381/107
f 100/382/108 78/383/108 76/384/108
f 101/385/109 77/386/109 79/387/109 102/388/109
f 102/389/110 80/390/110 78/391/110 101/392/110
f 79/393/111 81/394/111 103/395/111 102/396/111
f 102/397/112 103/398/112 82/399/112 80/400/112
f 84/401/113 82/402/113 103/403/113
f 104/404/114 98/405/114 96/406/114
f 104/407/115 97/408/115 99/409/115 105/410/115
f 105/411/116 100/412/116 98/413/116 104/414/116
f 99/415/117 77/416/117 101/417/117 105/418/117
f 105/419/118 101/420/118 78/421/118 100/422/118
f 83/423/119 85/424/119 106/425/119 107/426/119
f 107/427/120 106/428/120 86/429/120 84/430/120
f 85/431/121 87/432/121 108/433/121 106/434/121
f 106/435/122 108/436/122 88/437/122 86/438/122
f 108/439/123 87/440/123 89/441/123 109/442/123
f 109/443/124 90/444/124 88/445/124 108/446/124
f 109/447/125 89/448/125 91/449/125 110/450/125
f 110/451/126 92/452/126 90/453/126 109/454/126
f 110/455/127 91/456/127 93/457/127 111/458/127
f 111/459/128 94/460/128 92/461/128 110/462/128
f 93/463/129 95/464/129 111/465/129 112/466/129
f 112/467/130 96/468/130 94/469/130 111/470/130
f 103/471/131 81/472/131 107/473/131 83/474/131
f 107/475/132 84/476/132 103/477/132
f 112/478/133 95/479/133 97/480/133 104/481/133
f 104/482/134 96/483/134 112/484/134
o beveled_cuboid
v -0.06120711295120873 1.0960657353642704 0.044774324301267585
v 0.2221047603099363 1.365083217480781 0.04447141491813239
v -0.05568170714504339 1.0900358130361445 -0.1425472172453307
v 0.22763016611610165 1.359053295152655 -0.1428501266284659
v -0.023709999666734427 1.055144816871366 0.047197626628465925
v 0.3564484316983001 1.4659962117382075 0.04719764053224795
v -0.01818459386056906 1.0491148945432403 -0.14012391491813236
v 0.36197383750446543 1.4599662894100816 -0.14012390101435035
v -0.027809742821570838 1.0596189014284396 -0.17202572477014882
v -0.048901842678962804 1.0826368893082134 -0.17338883062531557
v 0.33357549898428607 1.3907674643249708 -0.17202572477014888
v 0.3124833991268941 1.4137854522047446 -0.17338883062531563
v -0.03517695056312464 1.0676587978659406 0.07773633062531561
v -0.05626905042051661 1.0906767857457145 0.07637322477014886
v 0.3449816762295955 1.4160099986677652 0.07773633062531556
v 0.3051161913853403 1.4218253486422456 0.07637322477014881
v 0.40926215290172413 1.5355637391450652 0.04651608760466458
v 0.4803299155732833 1.58053030891178 0.04515296784571572
v 0.43356094369475273 1.5467364547222329 -0.14080545394193375
v 0.48585532137944865 1.574500386583654 -0.1421685737008826
v -0.09761582072755043 1.0085952773442821 0.04651607370088255
v -0.1187079205849424 1.031613265224056 0.045152967845715805
v -0.09209041492138509 1.0025653550161564 -0.14080546784571574
v -0.11318251477877705 1.0255833428959302 -0.14216857370088248
vt 0.046875 0.984375
vt 0.015625 0.984375
vt 0.015625 0.953125
vt 0.046875 0.953125
vt 0.109375 0.984375
vt 0.078125 0.984375
vt 0.078125 0.953125
vt 0.109375 0.953125
vt 0.171875 0.984375
vt 0.140625 0.984375
vt 0.140625 0.953125
vt 0.171875 0.953125
vt 0.234375 0.984375
vt 0.203125 0.984375
vt 0.203125 0.953125
vt 0.234375 0.953125
vt 0.296875 0.984375
vt 0.265625 0.984375
vt 0.265625 0.953125
vt 0.296875 0.953125
vt 0.359375 0.984375
vt 0.328125 0.984375
vt 0.328125 0.953125
vt 0.359375 0.953125
vt 0.421875 0.984375
vt 0.390625 0.984375
vt 0.390625 0.953125
vt 0.421875 0.953125
vt 0.484375 0.984375
vt 0.453125 0.984375
vt 0.453125 0.953125
vt 0.484375 0.953125
vt 0.546875 0.984375
vt 0.515625 0.984375
vt 0.515625 0.953125
vt 0.546875 0.953125
vt 0.609375 0.984375
vt 0.578125 0.984375
vt 0.578125 0.953125
vt 0.609375 0.953125
vt 0.671875 0.984375
vt 0.640625 0.984375
vt 0.640625 0.953125
vt 0.671875 0.953125
vt 0.734375 0.984375
vt 0.703125 0.984375
vt 0.703125 0.953125
vt 0.734375 0.953125
vt 0.796875 0.984375
vt 0.765625 0.984375
vt 0.765625 0.953125
vt 0.796875 0.953125
vt 0.859375 0.984375
vt 0.828125 0.984375
vt 0.828125 0.953125
vt 0.859375 0.953125
vt 0.921875 0.984375
vt 0.890625 0.984375
vt 0.890625 0.953125
vt 0.921875 0.953125
vt 0.984375 0.984375
vt 0.953125 0.984375
vt 0.953125 0.953125
vt 0.984375 0.953125
vt 0.046875 0.921875
vt 0.015625 0.921875
vt 0.015625 0.890625
vt 0.046875 0.890625
vt 0.109375 0.921875
vt 0.078125 0.921875
vt 0.078125 0.890625
vt 0.109375 0.890625
vt 0.171875 0.921875
vt 0.140625 0.921875
vt 0.140625 0.890625
vt 0.234375 0.921875
vt 0.203125 0.921875
vt 0.203125 0.890625
vt 0.296875 0.921875
vt 0.265625 0.921875
vt 0.265625 0.890625
vt 0.359375 0.921875
vt 0.328125 0.921875
vt 0.328125 0.890625
vt 0.421875 0.921875
vt 0.390625 0.921875
vt 0.390625 0.890625
vt 0.484375 0.921875
vt 0.453125 0.921875
vt 0.453125 0.890625
vt 0.546875 0.921875
vt 0.515625 0.921875
vt 0.515625 0.890625
vt 0.609375 0.921875
vt 0.578125 0.921875
vt 0.578125 0.890625
vn -0.029468830966215127 0.032159585750004126 0.9990482215818577
vn 0.029468830966215127 -0.032159585750004126 -0.9990482215818577
vn -0.6879455154038323 0.7244507699017777 -0.043612496196355065
vn 0.7332979003192516 -0.6785163287650763 0.0434716112714971
vn -0.7372773368101242 -0.6755902076156602 2.4286128663675305e-17
vn 0.5347818485958277 -0.8438984284465082 0.042939688843112354
vn -0.6707409996617837 0.7066349077739452 0.22533002127550403
vn -0.6549688925713715 0.6894226732264034 -0.30937376651098125
vn -0.7456260161672691 0.6649499305362653 -0.04339854714553787
vn -0.6399633737845617 0.76716904032929 -0.043572282181653925
vn 0.6420729064675597 -0.5941063818482567 0.4845410094382869
vn 0.6705734066829966 -0.6204777005291661 -0.4066186535263712
vn 0.532172057026141 -0.8455478316434681 0.04291580272574617
vn 0.7959484159665322 -0.6038413309775781 0.042915802725746154
vn 0.20261625281803944 -0.34797432238427733 -0.9153472155718723
vn -0.2796540289658411 -0.20065489975199197 0.9388989483904489
vn 0.18721453560205079 -0.306809428933674 0.9331766670768732
vn -0.2242648018859583 -0.2611016341319246 -0.9388989483904489
vn 0.46451169583710405 -0.7445170328624827 0.47950315140589317
vn 0.4905276517760304 -0.7729084667420769 -0.4024861797397591
vn 0.6500953501276189 -0.49914702727775445 -0.5729121057389426
vn 0.6387116093285484 -0.5225132096838723 0.5648251285263374
vn -0.7265337644162048 0.6494896023635229 0.22430324470433236
vn -0.7108335271545299 0.6323557999710525 -0.3079640221130068
vn -0.6135286196417769 0.7344297824764096 0.2901646558285651
vn -0.5939856328449922 0.7131023548487939 -0.3723789729332726
usemtl m_091ba47d-ba14-e3c3-9759-4c285b5669dd
f 128/485/135 126/486/135 125/487/135 127/488/135
f 121/489/136 122/490/136 124/491/136 123/492/136
f 113/493/137 114/494/137 116/495/137 115/496/137
f 120/497/138 118/498/138 117/499/138 119/500/138
f 133/501/139 134/502/139 136/503/139 135/504/139
f 132/505/140 130/506/140 129/507/140 131/508/140
f 114/509/141 113/510/141 126/511/141 128/512/141
f 122/513/142 115/514/142 116/515/142 124/516/142
f 134/517/143 113/518/143 115/519/143 136/520/143
f 116/521/144 114/522/144 130/523/144 132/524/144
f 125/525/145 117/526/145 118/527/145 127/528/145
f 120/529/146 119/530/146 121/531/146 123/532/146
f 119/533/147 117/534/147 133/535/147 135/536/147
f 129/537/148 118/538/148 120/539/148 131/540/148
f 129/541/149 130/542/149 127/543/149 128/544/149
f 134/545/150 133/546/150 125/547/150 126/548/150
f 123/549/151 132/550/151 131/551/151 124/552/151
f 121/553/152 135/554/152 136/555/152 122/556/152
f 117/557/153 125/558/153 133/559/153
f 119/560/154 135/561/154 121/562/154
f 118/563/155 129/564/155 127/565/155
f 120/566/156 123/567/156 131/568/156
f 113/569/157 134/570/157 126/571/157
f 115/572/158 122/573/158 136/574/158
f 114/575/159 128/576/159 130/577/159
f 116/578/160 132/579/160 124/580/160